<svg xmlns="http://www.w3.org/2000/svg" viewBox="0 0 128 128">
  <defs>
    <linearGradient id="g" x1="0" x2="1" y1="0" y2="1">
      <stop offset="0" stop-color="#7c5cff"/>
      <stop offset="1" stop-color="#00d4ff"/>
    </linearGradient>
  </defs>
  <rect width="128" height="128" rx="20" fill="#141622"/>
  <!-- grid -->
  <g stroke="#2a2f49" stroke-width="2">
    <rect x="22" y="22" width="84" height="84" fill="#0f1118"/>
    <line x1="50" y1="22" x2="50" y2="106"/>
    <line x1="78" y1="22" x2="78" y2="106"/>
    <line x1="22" y1="50" x2="106" y2="50"/>
    <line x1="22" y1="78" x2="106" y2="78"/>
  </g>
  <!-- mine -->
  <g transform="translate(64 64)">
    <circle r="12" fill="url(#g)"/>
    <g stroke="#e9e7ff" stroke-width="2">
      <line x1="0" y1="-18" x2="0" y2="-30"/>
      <line x1="0" y1="18" x2="0" y2="30"/>
      <line x1="-18" y1="0" x2="-30" y2="0"/>
      <line x1="18" y1="0" x2="30" y2="0"/>
      <line x1="-13" y1="-13" x2="-22" y2="-22"/>
      <line x1="13" y1="13" x2="22" y2="22"/>
      <line x1="13" y1="-13" x2="22" y2="-22"/>
      <line x1="-13" y1="13" x2="-22" y2="22"/>
    </g>
  </g>
</svg>
